<mxfile host="app.diagrams.net" modified="2023-10-03T07:32:22.684Z" agent="Mozilla/5.0 (Windows NT 10.0; Win64; x64; rv:109.0) Gecko/20100101 Firefox/118.0" etag="aCQ5o6vphdaCKXaBXq0I" version="22.0.1" type="github">
  <diagram name="Page-1" id="sOd9fzR-GMDbQcMOZskv">
    <mxGraphModel dx="939" dy="539" grid="1" gridSize="10" guides="1" tooltips="1" connect="1" arrows="1" fold="1" page="1" pageScale="1" pageWidth="850" pageHeight="1100" math="0" shadow="0">
      <root>
        <mxCell id="0" />
        <mxCell id="1" parent="0" />
        <mxCell id="nBuxkpFvrk75a08uZB1G-1" value="Central Station&lt;br&gt;(ocpp 1.6)" style="rounded=1;whiteSpace=wrap;html=1;verticalAlign=top;" parent="1" vertex="1">
          <mxGeometry x="450" y="380" width="120" height="90" as="geometry" />
        </mxCell>
        <mxCell id="nBuxkpFvrk75a08uZB1G-3" value="api" style="rounded=1;whiteSpace=wrap;html=1;verticalAlign=middle;" parent="1" vertex="1">
          <mxGeometry x="510" y="430" width="60" height="40" as="geometry" />
        </mxCell>
        <mxCell id="nBuxkpFvrk75a08uZB1G-4" value="WS" style="rounded=1;whiteSpace=wrap;html=1;verticalAlign=middle;" parent="1" vertex="1">
          <mxGeometry x="450" y="430" width="60" height="40" as="geometry" />
        </mxCell>
        <mxCell id="nBuxkpFvrk75a08uZB1G-5" value="" style="rounded=0;whiteSpace=wrap;html=1;" parent="1" vertex="1">
          <mxGeometry x="180" y="380" width="120" height="90" as="geometry" />
        </mxCell>
        <mxCell id="nBuxkpFvrk75a08uZB1G-7" value="&lt;div&gt;cp&lt;/div&gt;&lt;div&gt;&lt;br&gt;&lt;/div&gt;" style="rounded=0;whiteSpace=wrap;html=1;" parent="1" vertex="1">
          <mxGeometry x="260" y="390" width="20" height="45" as="geometry" />
        </mxCell>
        <mxCell id="nBuxkpFvrk75a08uZB1G-8" value="&lt;div&gt;cp&lt;/div&gt;&lt;div&gt;&lt;br&gt;&lt;/div&gt;" style="rounded=0;whiteSpace=wrap;html=1;" parent="1" vertex="1">
          <mxGeometry x="190" y="390" width="20" height="45" as="geometry" />
        </mxCell>
        <mxCell id="nBuxkpFvrk75a08uZB1G-9" value="&lt;div&gt;cp&lt;/div&gt;&lt;div&gt;&lt;br&gt;&lt;/div&gt;" style="rounded=0;whiteSpace=wrap;html=1;" parent="1" vertex="1">
          <mxGeometry x="230" y="412.5" width="20" height="45" as="geometry" />
        </mxCell>
        <mxCell id="nBuxkpFvrk75a08uZB1G-10" value="" style="shape=flexArrow;endArrow=classic;startArrow=classic;html=1;rounded=0;entryX=0;entryY=0.5;entryDx=0;entryDy=0;exitX=1.006;exitY=0.793;exitDx=0;exitDy=0;exitPerimeter=0;" parent="1" source="nBuxkpFvrk75a08uZB1G-5" target="nBuxkpFvrk75a08uZB1G-4" edge="1">
          <mxGeometry width="100" height="100" relative="1" as="geometry">
            <mxPoint x="310" y="450" as="sourcePoint" />
            <mxPoint x="440" y="430" as="targetPoint" />
          </mxGeometry>
        </mxCell>
        <mxCell id="nBuxkpFvrk75a08uZB1G-14" value="http://adress" style="rounded=1;whiteSpace=wrap;html=1;" parent="1" vertex="1">
          <mxGeometry x="600" y="405" width="90" height="30" as="geometry" />
        </mxCell>
        <mxCell id="nBuxkpFvrk75a08uZB1G-17" value="ws://adress" style="rounded=1;whiteSpace=wrap;html=1;" parent="1" vertex="1">
          <mxGeometry x="330" y="410" width="90" height="30" as="geometry" />
        </mxCell>
        <mxCell id="nBuxkpFvrk75a08uZB1G-19" value="" style="rounded=0;whiteSpace=wrap;html=1;" parent="1" vertex="1">
          <mxGeometry x="720" y="380" width="120" height="90" as="geometry" />
        </mxCell>
        <mxCell id="nBuxkpFvrk75a08uZB1G-27" value="&lt;div&gt;app&lt;/div&gt;" style="rounded=1;whiteSpace=wrap;html=1;" parent="1" vertex="1">
          <mxGeometry x="730" y="390" width="30" height="40" as="geometry" />
        </mxCell>
        <mxCell id="nBuxkpFvrk75a08uZB1G-28" value="&lt;div&gt;app&lt;/div&gt;" style="rounded=1;whiteSpace=wrap;html=1;direction=south;" parent="1" vertex="1">
          <mxGeometry x="760" y="435" width="40" height="30" as="geometry" />
        </mxCell>
        <mxCell id="nBuxkpFvrk75a08uZB1G-29" value="&lt;div&gt;app&lt;/div&gt;" style="rounded=1;whiteSpace=wrap;html=1;" parent="1" vertex="1">
          <mxGeometry x="800" y="390" width="30" height="40" as="geometry" />
        </mxCell>
        <mxCell id="nBuxkpFvrk75a08uZB1G-30" value="&lt;div&gt;charging points&lt;/div&gt;&lt;div&gt;(chargers)&lt;br&gt;&lt;/div&gt;" style="rounded=1;whiteSpace=wrap;html=1;" parent="1" vertex="1">
          <mxGeometry x="180" y="330" width="120" height="40" as="geometry" />
        </mxCell>
        <mxCell id="nBuxkpFvrk75a08uZB1G-31" value="user/admin apps" style="rounded=1;whiteSpace=wrap;html=1;" parent="1" vertex="1">
          <mxGeometry x="720" y="330" width="120" height="40" as="geometry" />
        </mxCell>
        <mxCell id="nBuxkpFvrk75a08uZB1G-33" value="&lt;div&gt;server&lt;br&gt;(springboot)&lt;br&gt;&lt;/div&gt;" style="rounded=0;whiteSpace=wrap;html=1;" parent="1" vertex="1">
          <mxGeometry x="465" y="490" width="90" height="40" as="geometry" />
        </mxCell>
        <mxCell id="nBuxkpFvrk75a08uZB1G-34" value="&lt;div&gt;simulator&lt;br&gt;(js/html)&lt;br&gt;&lt;/div&gt;" style="rounded=0;whiteSpace=wrap;html=1;" parent="1" vertex="1">
          <mxGeometry x="195" y="490" width="90" height="40" as="geometry" />
        </mxCell>
        <mxCell id="nBuxkpFvrk75a08uZB1G-35" value="&lt;div&gt;mock app&lt;/div&gt;&lt;div&gt;(js/html)&lt;/div&gt;" style="rounded=0;whiteSpace=wrap;html=1;" parent="1" vertex="1">
          <mxGeometry x="735" y="490" width="90" height="40" as="geometry" />
        </mxCell>
        <mxCell id="nBuxkpFvrk75a08uZB1G-36" value="&lt;div&gt;database&lt;/div&gt;&lt;div&gt;(postgresql&lt;br&gt;&lt;/div&gt;" style="shape=cylinder3;whiteSpace=wrap;html=1;boundedLbl=1;backgroundOutline=1;size=15;" parent="1" vertex="1">
          <mxGeometry x="470" y="220" width="80" height="80" as="geometry" />
        </mxCell>
        <mxCell id="nBuxkpFvrk75a08uZB1G-37" value="" style="endArrow=classic;html=1;rounded=0;" parent="1" edge="1">
          <mxGeometry width="50" height="50" relative="1" as="geometry">
            <mxPoint x="700" y="450" as="sourcePoint" />
            <mxPoint x="580" y="450" as="targetPoint" />
          </mxGeometry>
        </mxCell>
        <mxCell id="nBuxkpFvrk75a08uZB1G-38" value="" style="endArrow=classic;html=1;rounded=0;" parent="1" edge="1">
          <mxGeometry width="50" height="50" relative="1" as="geometry">
            <mxPoint x="580" y="460" as="sourcePoint" />
            <mxPoint x="700" y="460" as="targetPoint" />
          </mxGeometry>
        </mxCell>
        <mxCell id="nBuxkpFvrk75a08uZB1G-39" value="" style="shape=flexArrow;endArrow=classic;html=1;rounded=0;entryX=0.5;entryY=1;entryDx=0;entryDy=0;entryPerimeter=0;exitX=0.5;exitY=0;exitDx=0;exitDy=0;" parent="1" source="nBuxkpFvrk75a08uZB1G-1" target="nBuxkpFvrk75a08uZB1G-36" edge="1">
          <mxGeometry width="50" height="50" relative="1" as="geometry">
            <mxPoint x="520" y="440" as="sourcePoint" />
            <mxPoint x="570" y="390" as="targetPoint" />
          </mxGeometry>
        </mxCell>
      </root>
    </mxGraphModel>
  </diagram>
</mxfile>
